<svg width="29" height="29" viewBox="0 0 29 29" fill="none" xmlns="http://www.w3.org/2000/svg">
<path d="M22.9587 15.7083V19.375C22.9587 22.2034 22.9587 23.6176 22.08 24.4963C21.2013 25.375 19.7871 25.375 16.9587 25.375H12.042C9.21357 25.375 7.79935 25.375 6.92067 24.4963C6.04199 23.6176 6.04199 22.2034 6.04199 19.375V9.625C6.04199 6.79657 6.04199 5.38236 6.92067 4.50368C7.79935 3.625 9.21357 3.625 12.042 3.625H14.5003" stroke="#787878" stroke-linecap="round"/>
<path d="M21.75 3.625L21.75 10.875" stroke="#787878" stroke-linecap="round"/>
<path d="M25.375 7.25L18.125 7.25" stroke="#787878" stroke-linecap="round"/>
<path d="M10.875 15.708L18.125 15.708" stroke="#787878" stroke-linecap="round"/>
<path d="M10.875 10.875L15.7083 10.875" stroke="#787878" stroke-linecap="round"/>
<path d="M10.875 20.542L15.7083 20.542" stroke="#787878" stroke-linecap="round"/>
</svg>
