<svg width="48" height="48" viewBox="0 0 48 48" fill="none" xmlns="http://www.w3.org/2000/svg">
<path fill-rule="evenodd" clip-rule="evenodd" d="M11.9608 9.88235C10.8791 9.88235 9.84175 10.312 9.0769 11.0769C8.31204 11.8418 7.88235 12.8791 7.88235 13.9608V30.6928C7.88235 31.7745 8.31204 32.8118 9.0769 33.5767C9.84175 34.3416 10.8791 34.7712 11.9608 34.7712H18.6536C19.7353 34.7712 20.7726 34.3416 21.5375 33.5767C22.3023 32.8118 22.732 31.7745 22.732 30.6928V29.0196C22.732 28.4998 23.1534 28.0784 23.6732 28.0784C24.193 28.0784 24.6144 28.4998 24.6144 29.0196V30.6928C24.6144 32.2737 23.9864 33.7899 22.8685 34.9077C21.7506 36.0256 20.2345 36.6536 18.6536 36.6536H11.9608C10.3799 36.6536 8.86374 36.0256 7.74587 34.9077C6.62801 33.7899 6 32.2737 6 30.6928V13.9608C6 12.3799 6.62801 10.8637 7.74587 9.74587C8.86374 8.62801 10.3799 8 11.9608 8H18.6536C20.2345 8 21.7506 8.62801 22.8685 9.74587C23.9864 10.8637 24.6144 12.3799 24.6144 13.9608V15.634C24.6144 16.1538 24.193 16.5752 23.6732 16.5752C23.1534 16.5752 22.732 16.1538 22.732 15.634V13.9608C22.732 12.8791 22.3023 11.8418 21.5375 11.0769C20.7726 10.312 19.7353 9.88235 18.6536 9.88235H11.9608ZM29.7005 14.9685C30.0681 14.6009 30.664 14.6009 31.0315 14.9685L37.7243 21.6613C37.8146 21.7515 37.8827 21.8555 37.9286 21.9665C37.9699 22.0664 37.9933 22.172 37.9988 22.2784C37.9988 22.2795 37.9989 22.2806 37.9989 22.2816C37.9996 22.2967 38 22.3117 38 22.3268C38 22.4544 37.9746 22.5761 37.9286 22.6871C37.8827 22.7981 37.8146 22.9021 37.7243 22.9923L31.0315 29.6851C30.664 30.0527 30.0681 30.0527 29.7005 29.6851C29.3329 29.3176 29.3329 28.7216 29.7005 28.3541L34.7866 23.268H13.634C13.1142 23.268 12.6928 22.8466 12.6928 22.3268C12.6928 21.807 13.1142 21.3856 13.634 21.3856H34.7866L29.7005 16.2995C29.3329 15.9319 29.3329 15.336 29.7005 14.9685Z" fill="#787878"/>
</svg>
