<svg width="48" height="48" viewBox="0 0 48 48" fill="none" xmlns="http://www.w3.org/2000/svg">
<path fill-rule="evenodd" clip-rule="evenodd" d="M29.7992 22.868L29.8007 22.8665C30.5626 22.1512 31.1667 21.3013 31.5784 20.3656C31.9902 19.4299 32.2014 18.4268 32.2 17.414L34 17.4118C34.0017 18.6477 33.744 19.8719 33.2415 21.0138C32.739 22.1557 32.0017 23.193 31.072 24.0659C29.262 25.7694 26.762 26.8235 24 26.8235C21.238 26.8235 18.738 25.7694 16.928 24.0659C15.12 22.3642 14 20.0113 14 17.4118C14 14.8122 15.12 12.4593 16.928 10.7576C18.738 9.05412 21.238 8 24 8C26.762 8 29.262 9.05412 31.072 10.7576C32.88 12.4593 34 14.8122 34 17.4118H32.2C32.2 15.2796 31.2835 13.3525 29.7992 11.9556C28.3127 10.5565 26.2651 9.69412 24 9.69412C21.7349 9.69412 19.6873 10.5565 18.2008 11.9556C16.7165 13.3525 15.8 15.2796 15.8 17.4118C15.8 19.5439 16.7165 21.471 18.2008 22.868C19.6873 24.267 21.7349 25.1294 24 25.1294C26.2651 25.1294 28.3127 24.267 29.7992 22.868ZM15.8026 37.2314C17.6103 37.8501 20.3881 38.3059 24 38.3059C27.3671 38.3059 30.1553 37.8532 32.0383 37.2264C32.9884 36.9101 33.6198 36.5785 33.9775 36.3043C34.0942 36.2147 34.161 36.1487 34.1971 36.1074C34.1449 34.9429 33.3806 33.5814 31.6845 32.4348C29.9446 31.2588 27.3254 30.4 24 30.4C17.0135 30.4 13.8803 33.7775 13.8015 36.1441C13.8303 36.1818 13.889 36.2473 14.0014 36.3393C14.316 36.5967 14.892 36.9198 15.8026 37.2314ZM13.777 36.106C13.7772 36.1059 13.7789 36.1089 13.7813 36.1147C13.7779 36.1089 13.7767 36.106 13.777 36.106ZM34.2353 36.0561C34.2356 36.0562 34.2341 36.0591 34.2303 36.065C34.2331 36.0591 34.235 36.0561 34.2353 36.0561ZM24 40C16.5 40 12 38.1176 12 36.2353C12 32.4706 16.5 28.7059 24 28.7059C31.292 28.7059 36 32.4706 36 36.2353C36 38.1176 31.036 40 24 40Z" fill="#122194"/>
</svg>
