<svg width="570" height="411" viewBox="0 0 570 411" fill="none" xmlns="http://www.w3.org/2000/svg">
<g clip-path="url(#clip0_10_603)">
<path d="M281.044 409.263H259.148V240.696H276.956C277.818 240.696 278.646 241.038 279.257 241.646C279.869 242.255 280.214 243.081 280.219 243.944L281.044 409.263Z" fill="#122194"/>
<path d="M261.196 410.156H26.0586V290.107H261.196V410.156Z" fill="white"/>
<path d="M168.516 409.71H26.5049V290.554H260.749V317.451C260.722 341.911 250.995 365.361 233.704 382.657C216.413 399.953 192.97 409.682 168.516 409.71Z" fill="#F2F2F2"/>
<path d="M277.479 245.484C277.361 245.708 277.269 245.945 277.206 246.189L269.098 277.451L260.303 294.112H26.9512V289.962L40.2366 277.451L55.7348 247.798C56.419 246.489 57.3174 245.304 58.3929 244.292C60.8468 241.982 64.0893 240.696 67.4588 240.696H274.594C275.157 240.696 275.709 240.842 276.199 241.118C276.689 241.395 277.098 241.794 277.389 242.275C277.679 242.757 277.84 243.306 277.856 243.868C277.871 244.43 277.742 244.987 277.479 245.484Z" fill="#F2F2F2"/>
<path d="M261.196 410.156H26.0586V290.107H261.196V410.156ZM27.8436 408.371H259.411V291.893H27.8436V408.371Z" fill="#E6E6E6"/>
<path d="M273.429 261.477L269.097 277.451H40.2363L47.6314 264.155L273.429 261.477Z" fill="#122194"/>
<path d="M72.2126 353.014H34.7295V355.089H72.2126V353.014Z" fill="white"/>
<path d="M72.2126 360.276H34.7295V362.351H72.2126V360.276Z" fill="white"/>
<path d="M72.2126 367.538H34.7295V369.613H72.2126V367.538Z" fill="white"/>
<path d="M49.2491 329.902C56.6953 329.902 62.7317 323.864 62.7317 316.416C62.7317 308.968 56.6953 302.93 49.2491 302.93C41.8029 302.93 35.7666 308.968 35.7666 316.416C35.7666 323.864 41.8029 329.902 49.2491 329.902Z" fill="white"/>
<path d="M197.02 268.391H185.569V180.239H194.882C195.333 180.239 195.766 180.417 196.085 180.736C196.405 181.054 196.586 181.486 196.588 181.937L197.02 268.391Z" fill="#122194"/>
<path d="M186.64 268.858H63.6738V206.078H186.64V268.858Z" fill="white"/>
<path d="M138.173 268.624H63.9072V206.312H186.406V220.378C186.392 233.169 181.305 245.432 172.263 254.477C163.221 263.522 150.961 268.61 138.173 268.624Z" fill="#F2F2F2"/>
<path d="M195.155 182.743C195.093 182.86 195.045 182.983 195.012 183.111L190.772 199.46L186.173 208.173H64.1406V206.002L71.0883 199.46L79.1931 183.953C79.5509 183.268 80.0208 182.648 80.5832 182.119C81.8665 180.911 83.5621 180.239 85.3242 180.239H193.646C193.94 180.239 194.23 180.315 194.486 180.459C194.742 180.604 194.956 180.813 195.108 181.065C195.26 181.316 195.344 181.603 195.352 181.897C195.36 182.191 195.292 182.483 195.155 182.743Z" fill="#F2F2F2"/>
<path d="M186.64 268.858H63.6738V206.078H186.64V268.858ZM64.6073 267.924H185.706V207.012H64.6073V267.924Z" fill="#E6E6E6"/>
<path d="M193.037 191.106L190.772 199.459H71.0889L74.956 192.506L193.037 191.106Z" fill="#122194"/>
<path d="M87.8109 238.976H68.209V240.061H87.8109V238.976Z" fill="white"/>
<path d="M87.8109 242.773H68.209V243.858H87.8109V242.773Z" fill="white"/>
<path d="M87.8109 246.571H68.209V247.656H87.8109V246.571Z" fill="white"/>
<path d="M75.8017 226.889C79.6957 226.889 82.8525 223.731 82.8525 219.836C82.8525 215.941 79.6957 212.784 75.8017 212.784C71.9077 212.784 68.751 215.941 68.751 219.836C68.751 223.731 71.9077 226.889 75.8017 226.889Z" fill="white"/>
<path d="M534.486 410.095L534.415 409.714C533.256 403.324 533.503 396.758 535.137 390.473C536.772 384.187 539.755 378.333 543.879 373.318C546.215 370.523 548.894 368.033 551.852 365.908L552.134 365.704L552.257 366.029C553.728 369.909 555.585 373.795 556.431 375.515L557.002 362.675L557.328 362.502C558.821 361.702 560.52 361.367 562.205 361.541C563.889 361.715 565.484 362.39 566.782 363.478C568.125 364.558 569.114 366.015 569.621 367.661C570.129 369.308 570.132 371.069 569.63 372.717C569.186 374.226 568.767 375.791 568.362 377.304C566.969 382.504 565.529 387.881 562.738 392.409C560.591 395.816 557.711 398.699 554.308 400.85C550.905 403.001 547.064 404.364 543.067 404.84L534.486 410.095Z" fill="#F2F2F2"/>
<path d="M570 409.938C570 410.077 569.973 410.216 569.92 410.345C569.867 410.474 569.789 410.591 569.69 410.69C569.591 410.789 569.474 410.867 569.345 410.92C569.216 410.973 569.077 411.001 568.938 411H1.06205C0.78038 411 0.510239 410.888 0.311066 410.689C0.111893 410.49 0 410.22 0 409.938C0 409.656 0.111893 409.386 0.311066 409.187C0.510239 408.987 0.78038 408.875 1.06205 408.875H568.938C569.077 408.875 569.216 408.902 569.345 408.956C569.474 409.009 569.591 409.087 569.69 409.186C569.789 409.284 569.867 409.402 569.92 409.531C569.973 409.66 570 409.798 570 409.938Z" fill="#122194"/>
<path d="M441.193 138.126L424.938 135.797C419.441 144.992 417.487 169.466 417.487 169.466L401.58 207.286C400.526 208.001 399.68 208.982 399.126 210.129C398.571 211.276 398.329 212.549 398.423 213.819C398.517 215.09 398.944 216.313 399.661 217.366C400.378 218.419 401.359 219.264 402.506 219.817C403.654 220.37 404.926 220.611 406.196 220.515C407.466 220.42 408.689 219.991 409.74 219.273C410.792 218.555 411.636 217.572 412.188 216.424C412.739 215.276 412.978 214.002 412.881 212.732L439 168.711L441.193 138.126Z" fill="#FFB8B8"/>
<path d="M438.606 92.9874C441.122 93.3771 443.521 94.3167 445.632 95.7393C447.744 97.1619 449.516 99.0325 450.823 101.218C452.13 103.404 452.939 105.85 453.193 108.384C453.447 110.918 453.139 113.477 452.292 115.878L448.843 125.658C448.843 125.658 446.965 155.104 439.804 163.416L417.831 161.427C417.831 161.427 421.848 146.571 418.764 139.383C416.875 134.981 416.98 119.777 418.841 107.408C419.19 105.162 419.978 103.007 421.161 101.066C422.344 99.1254 423.897 97.4368 425.733 96.0973C427.569 94.7578 429.651 93.7936 431.86 93.26C434.069 92.7263 436.361 92.6337 438.606 92.9874Z" fill="#E6E6E6"/>
<path d="M492.324 398.528L482.533 398.527L477.875 360.75L492.326 360.75L492.324 398.528Z" fill="#FFB6B6"/>
<path d="M492.668 408.744L462.559 408.743V408.362C462.559 405.253 463.794 402.272 465.991 400.074C468.189 397.875 471.17 396.64 474.278 396.64H474.279L479.779 392.466L490.04 396.641L492.669 396.641L492.668 408.744Z" fill="#2F2E41"/>
<path d="M449.755 351.709L440.711 355.459L421.94 322.349L435.29 316.812L449.755 351.709Z" fill="#FFB6B6"/>
<path d="M453.987 361.014L426.173 372.55L426.028 372.198C424.837 369.326 424.836 366.099 426.024 363.226C427.212 360.353 429.493 358.07 432.364 356.879L432.364 356.879L435.846 350.916L446.924 350.84L449.352 349.833L453.987 361.014Z" fill="#2F2E41"/>
<path d="M503.519 183.628L434.032 190.89L424.737 222.205L392.547 273.949L428.089 339.268L440.605 328.03L428.591 275.285L464.452 236.56L471.251 233.737L476.649 377.437L496.614 377.765L505.351 219.201C509.549 205.194 508.285 193.628 503.519 183.628Z" fill="#2F2E41"/>
<path d="M478.043 84.4939L466.637 71.6479L448.615 73.6509L437.077 89.8029C430.935 91.2152 425.568 94.9283 422.08 100.178C418.592 105.428 417.248 111.816 418.325 118.027C422.803 143.816 438.019 168.829 432.995 181.554C425.368 200.869 424.902 208.747 443.159 206.039C461.416 203.331 522.58 197.088 510.722 185.226C498.864 173.365 496.259 153.544 496.259 153.544L495.783 108.196C496.288 105.461 496.22 102.651 495.586 99.9436C494.952 97.2358 493.764 94.6885 492.098 92.4622C490.432 90.2359 488.323 88.3786 485.904 87.0073C483.485 85.636 480.808 84.7802 478.043 84.4939L478.043 84.4939Z" fill="#E6E6E6"/>
<path d="M455.754 68.3609C466.803 68.3609 475.76 59.4018 475.76 48.3501C475.76 37.2985 466.803 28.3394 455.754 28.3394C444.706 28.3394 435.749 37.2985 435.749 48.3501C435.749 59.4018 444.706 68.3609 455.754 68.3609Z" fill="#FFB8B8"/>
<path d="M480.404 47.162C479.511 51.2164 477.899 55.0782 475.646 58.5648C475.048 59.7537 474.154 60.7687 473.051 61.5124C472.492 61.871 471.825 62.0222 471.167 61.9399C470.508 61.8575 469.899 61.5468 469.446 61.0617L468.959 60.665C469.914 60.0768 470.766 59.337 471.482 58.4746C471.837 58.0419 472.084 57.5307 472.201 56.9835C472.319 56.4364 472.304 55.8691 472.158 55.3287C471.986 54.7958 471.613 54.3507 471.119 54.0868C470.625 53.8229 470.048 53.7608 469.509 53.9135C468.337 54.3733 467.626 56.0679 466.4 55.8065C465.409 55.5901 465.201 54.2831 465.201 53.2555C465.237 47.8831 462.642 40.2482 460.632 40.4826C458.602 40.5936 456.569 40.3214 454.64 39.6803C452.708 39.0381 450.669 38.7779 448.638 38.9141C448.494 38.9321 448.35 38.9592 448.196 38.9862C447.871 37.9655 447.423 36.9879 446.863 36.0747C446.926 37.177 446.872 38.283 446.701 39.3738C445.084 40.0402 443.414 40.5679 441.708 40.9513C439.852 41.2127 435.769 46.7654 435.58 46.1975C435.255 45.1767 434.807 44.1991 434.246 43.2859C434.31 44.3883 434.255 45.4942 434.084 46.5851C434.075 46.6301 434.075 46.6662 434.066 46.7113C433.165 45.5124 432.615 44.0521 432.922 45.1699C429.903 38.3372 431.074 33.4426 435.824 27.6826C436.749 26.4441 437.974 25.4609 439.383 24.8251C440.089 24.515 440.862 24.3919 441.63 24.4677C442.397 24.5435 443.131 24.8156 443.763 25.2578C445.7 23.4814 448.076 22.2555 450.646 21.7071C453.217 21.1587 455.886 21.3078 458.38 22.1389C463.327 23.8606 467.139 24.8702 467.896 30.0623C471.987 29.4043 476.196 31.7299 478.448 35.2003C480.692 38.6798 481.152 43.0967 480.404 47.162Z" fill="#2F2E41"/>
<path d="M464.182 213.37H457.542V162.253H462.942C463.204 162.253 463.454 162.357 463.64 162.541C463.825 162.726 463.93 162.976 463.931 163.238L464.182 213.37Z" fill="#3F3D56"/>
<path d="M458.163 213.641H386.859V177.237H458.163V213.641Z" fill="white"/>
<path d="M430.058 213.505H386.994V177.372H458.027V185.529C458.019 192.946 455.069 200.057 449.826 205.302C444.582 210.547 437.473 213.497 430.058 213.505Z" fill="#122194"/>
<path d="M463.1 163.705C463.065 163.773 463.037 163.844 463.018 163.919L460.559 173.399L457.892 178.451H387.13V177.192L391.159 173.399L395.858 164.407C396.066 164.01 396.338 163.65 396.664 163.343C397.408 162.643 398.392 162.253 399.414 162.253H462.226C462.396 162.253 462.564 162.297 462.712 162.381C462.861 162.465 462.985 162.586 463.073 162.732C463.161 162.878 463.21 163.044 463.215 163.215C463.219 163.385 463.18 163.554 463.1 163.705Z" fill="#3F3D56"/>
<path d="M458.163 213.641H386.859V177.237H458.163V213.641ZM387.401 213.099H457.621V177.778H387.401V213.099Z" fill="#3F3D56"/>
<path d="M461.871 168.554L460.558 173.399H391.158L393.4 169.367L461.871 168.554Z" fill="#122194"/>
<path d="M400.855 196.312H389.488V196.942H400.855V196.312Z" fill="white"/>
<path d="M400.855 198.515H389.488V199.144H400.855V198.515Z" fill="white"/>
<path d="M400.855 200.717H389.488V201.346H400.855V200.717Z" fill="white"/>
<path d="M393.891 189.304C396.149 189.304 397.98 187.473 397.98 185.215C397.98 182.956 396.149 181.125 393.891 181.125C391.633 181.125 389.803 182.956 389.803 185.215C389.803 187.473 391.633 189.304 393.891 189.304Z" fill="white"/>
<path d="M491.921 133.452L475.667 131.124C470.169 140.318 468.216 164.792 468.216 164.792L452.308 202.612C451.255 203.328 450.408 204.309 449.854 205.456C449.3 206.603 449.058 207.875 449.152 209.146C449.246 210.416 449.672 211.64 450.389 212.692C451.106 213.745 452.088 214.591 453.235 215.144C454.382 215.697 455.655 215.938 456.925 215.842C458.195 215.747 459.417 215.318 460.469 214.6C461.521 213.882 462.365 212.899 462.916 211.751C463.468 210.602 463.707 209.329 463.61 208.059L489.729 164.038L491.921 133.452Z" fill="#FFB8B8"/>
<path d="M483.111 88.3138C485.627 88.7035 488.026 89.6431 490.137 91.0657C492.249 92.4883 494.021 94.3589 495.328 96.5445C496.634 98.73 497.444 101.177 497.697 103.711C497.951 106.245 497.644 108.803 496.797 111.205L493.347 120.984C493.347 120.984 497.693 150.431 490.532 158.743L468.558 156.753C468.558 156.753 472.576 141.897 469.492 134.709C467.603 130.307 467.708 115.103 469.569 102.735C470.99 93.2907 473.675 86.8522 483.111 88.3138Z" fill="#E6E6E6"/>
<path d="M345.087 39.5921C337.145 43.5539 331.102 50.509 328.288 58.9275C325.473 67.346 326.116 76.5382 330.077 84.482C338.325 101.024 368.129 129.237 391.908 133.499C381.679 102.433 395.902 70.8546 389.965 54.6063C383.621 37.2444 361.625 31.3421 345.087 39.5921Z" fill="#122194"/>
<path d="M356.235 78.9346C362.262 78.9346 367.148 74.0475 367.148 68.0188C367.148 61.9902 362.262 57.103 356.235 57.103C350.208 57.103 345.322 61.9902 345.322 68.0188C345.322 74.0475 350.208 78.9346 356.235 78.9346Z" fill="white"/>
<path d="M391.698 151.02C395.646 151.02 398.846 147.819 398.846 143.87C398.846 139.922 395.646 136.721 391.698 136.721C387.751 136.721 384.551 139.922 384.551 143.87C384.551 147.819 387.751 151.02 391.698 151.02Z" fill="#122194"/>
<path opacity="0.2" d="M359.561 56.5442C360.994 56.4944 362.422 56.7276 363.765 57.2304C365.108 57.7332 366.339 58.4958 367.387 59.4746C368.435 60.4533 369.28 61.6291 369.873 62.9347C370.467 64.2403 370.797 65.6501 370.846 67.0835C370.894 68.5169 370.66 69.9458 370.156 71.2886C369.653 72.6314 368.889 73.8617 367.91 74.9092C366.93 75.9567 365.754 76.8009 364.448 77.3935C363.143 77.9861 361.733 78.3155 360.3 78.3628C362.729 77.4593 364.757 75.7207 366.021 73.4582C367.285 71.1958 367.703 68.5571 367.2 66.0145C366.697 63.4719 365.306 61.1914 363.275 59.5811C361.245 57.9708 358.708 57.1358 356.118 57.2256C357.221 56.8142 358.384 56.5841 359.561 56.5442Z" fill="#231F20"/>
<path opacity="0.2" d="M390.02 54.6126C395.957 70.8609 381.735 102.439 391.964 133.506C389.719 133.092 387.508 132.513 385.349 131.774C377.015 101.742 390.095 71.7328 384.359 56.034C379.225 41.9834 363.84 35.4396 349.393 37.8268C365.249 32.4176 384.206 38.7021 390.02 54.6126Z" fill="#231F20"/>
<path d="M55.0302 205.362C46.8094 205.165 38.8469 208.242 32.8944 213.917C26.9418 219.592 23.4868 227.4 23.2894 235.623C22.8783 252.746 35.0671 288.772 52.6966 302.571C57.7774 272.692 83.106 252.993 85.2823 237.112C87.6077 220.142 72.149 205.774 55.0302 205.362Z" fill="#122194"/>
<path d="M51.8463 243.592C57.4309 243.592 61.9581 239.063 61.9581 233.477C61.9581 227.891 57.4309 223.362 51.8463 223.362C46.2616 223.362 41.7344 227.891 41.7344 233.477C41.7344 239.063 46.2616 243.592 51.8463 243.592Z" fill="white"/>
<path d="M48.0322 317.599C51.6901 317.599 54.6553 314.633 54.6553 310.974C54.6553 307.315 51.6901 304.349 48.0322 304.349C44.3744 304.349 41.4092 307.315 41.4092 310.974C41.4092 314.633 44.3744 317.599 48.0322 317.599Z" fill="#122194"/>
<path opacity="0.2" d="M59.541 225.52C61.9526 226.694 63.7994 228.778 64.6751 231.313C65.5508 233.849 65.3837 236.628 64.2105 239.04C63.6296 240.235 62.8193 241.303 61.8257 242.184C60.832 243.065 59.6746 243.742 58.4195 244.176C55.8848 245.052 53.1059 244.885 50.6943 243.711C53.0749 244.024 55.489 243.479 57.5046 242.174C59.5202 240.869 61.0057 238.889 61.6952 236.588C62.3847 234.288 62.2332 231.817 61.2678 229.618C60.3024 227.419 58.5861 225.635 56.4262 224.586C57.508 224.728 58.5599 225.043 59.541 225.52Z" fill="#231F20"/>
<path opacity="0.2" d="M85.3251 237.141C83.1489 253.022 57.8202 272.721 52.7395 302.6C51.0802 301.288 49.5203 299.856 48.0723 298.314C54.2565 270.104 77.9701 251.196 80.0728 235.851C81.9547 222.118 72.1885 210.09 59.3215 205.783C74.6517 208.225 87.4562 221.59 85.3251 237.141Z" fill="#231F20"/>
<path d="M172.66 73.5738C170.35 73.725 168.189 74.7721 166.639 76.4922C165.089 78.2123 164.27 80.4697 164.358 82.784C164.384 83.2542 164.448 83.7214 164.55 84.181L138.313 100.715L152.819 107.132L175.51 90.4472C177.382 89.875 179.012 88.699 180.146 87.1026C181.28 85.5063 181.853 83.5794 181.777 81.6228C181.723 80.5098 181.45 79.4184 180.975 78.4108C180.499 77.4033 179.829 76.4993 179.004 75.7505C178.179 75.0018 177.215 74.4229 176.166 74.0469C175.118 73.6709 174.005 73.5053 172.893 73.5593C172.815 73.5631 172.738 73.5679 172.66 73.5738Z" fill="#FFB6B6"/>
<path d="M147.36 93.1994L153.862 106.62L128.152 123.169C126.323 124.356 124.22 125.056 122.044 125.202C119.868 125.348 117.691 124.935 115.72 124.002C113.323 122.854 111.364 120.959 110.138 118.6C108.912 116.242 108.486 113.549 108.923 110.928L117.266 63.2875C117.826 59.9537 119.642 56.9613 122.34 54.9258C125.038 52.8902 128.414 51.9663 131.772 52.344C133.408 52.523 134.993 53.0224 136.435 53.8139C137.878 54.6054 139.151 55.6734 140.181 56.9569C141.212 58.2405 141.979 59.7144 142.44 61.2946C142.9 62.8748 143.046 64.5303 142.867 66.1666C142.853 66.2959 142.836 66.4249 142.818 66.5537C142.755 67.0114 142.667 67.4655 142.556 67.9138L133.448 101.795L147.36 93.1994Z" fill="#122194"/>
<path d="M149.187 114.004H112.419V150.782H149.187V114.004Z" fill="#FFB8B8"/>
<path d="M236.384 222.319L250.426 217.594L258.246 255.828L248.73 259.029L236.384 222.319Z" fill="#FFB6B6"/>
<path d="M212.584 219.381L226.513 214.33L235.22 252.371L225.782 255.793L212.584 219.381Z" fill="#FFB6B6"/>
<path d="M113.738 160.391C106.368 209.535 204.507 180.48 204.507 180.48L235.277 222.939L253.292 219.663C253.292 219.663 245.186 194.174 230.71 160.003C224.281 144.829 151.282 148.536 151.282 148.536L149.767 136.638L108.006 135.819L113.738 160.391Z" fill="#2F2E41"/>
<path d="M184.628 183.775L207.321 169.637C223.935 202.82 228.832 217.191 228.832 217.191L213.126 221.609L184.628 183.775Z" fill="#2F2E41"/>
<path d="M134.742 54.2386L127.342 44.723L116.785 44.2651L115.731 53.2147L110.5 55.6275C105.277 75.4762 104.47 96.2293 108.137 116.424C108.838 117.084 109.35 117.919 109.621 118.844C109.891 119.768 109.911 120.748 109.676 121.682L109.337 123.034L109.369 123.084C110.482 124.841 110.859 126.965 110.42 128.998L107.922 133.438C107.025 135.035 106.487 136.808 106.345 138.633C106.203 140.459 106.46 142.294 107.099 144.01C107.737 145.727 108.742 147.283 110.043 148.572C111.344 149.86 112.91 150.85 114.632 151.472C129.987 157.04 144.382 159.113 155.031 143.49L158.379 89.0469L134.742 54.2386Z" fill="#122194"/>
<path d="M126.99 47.2499C137.77 47.2499 146.509 38.5085 146.509 27.7253C146.509 16.9422 137.77 8.20068 126.99 8.20068C116.21 8.20068 107.471 16.9422 107.471 27.7253C107.471 38.5085 116.21 47.2499 126.99 47.2499Z" fill="#FFB8B8"/>
<path d="M117.191 4.18878C108.926 4.34761 102.371 12.0159 102.55 21.3163C96.4335 27.6998 94.9519 59.0977 100.062 67.4504C109.411 68.5359 115.097 45.4013 123.295 48.7457L124.375 43.6968L126.824 50.2717C128.907 51.2324 130.975 52.287 133.027 53.4355C134.501 46.6696 134.136 40.093 130.172 34.3647C126.651 29.2756 135.22 23.2339 141.348 24.0879L141.258 19.4138L142.798 24.06C145.187 25.8158 147.829 25.1802 150.539 23.9112C154.933 1.06808 120.913 -5.17879 117.191 4.18878Z" fill="#2F2E41"/>
<path d="M244.406 265.496L250.662 264.678L251.007 258.624L254.639 264.159L271.232 261.991C272.027 261.887 272.769 261.531 273.348 260.976C273.927 260.421 274.314 259.695 274.451 258.905C274.589 258.114 274.47 257.3 274.112 256.582C273.755 255.864 273.177 255.279 272.463 254.912L258.017 247.49L257.237 241.517L243.408 244.17L244.406 265.496Z" fill="#2F2E41"/>
<path d="M227.881 265.55L233.557 262.794L231.968 256.942L237.164 261.041L252.218 253.73C252.939 253.379 253.53 252.807 253.904 252.097C254.277 251.387 254.414 250.576 254.294 249.783C254.175 248.99 253.804 248.255 253.238 247.687C252.671 247.119 251.938 246.747 251.145 246.626L235.093 244.16L232.462 238.741L220.185 245.637L227.881 265.55Z" fill="#2F2E41"/>
<path d="M142.201 135.351H149.161V81.7725H143.501C143.227 81.7725 142.964 81.881 142.769 82.0744C142.575 82.2679 142.465 82.5304 142.464 82.8046L142.201 135.351Z" fill="#122194"/>
<path d="M148.511 97.4775H223.249V135.635H148.511V97.4775Z" fill="white"/>
<path d="M148.652 106.169V97.6191H223.107V135.493H177.969C170.196 135.484 162.745 132.392 157.249 126.894C151.753 121.397 148.661 113.943 148.652 106.169Z" fill="#F2F2F2"/>
<path d="M143.335 83.2944C143.372 83.3654 143.402 83.4406 143.422 83.5184L145.999 93.4549L148.794 98.7505H222.965V97.4316L218.742 93.455L213.816 84.0299C213.599 83.6138 213.313 83.2371 212.971 82.9154C212.191 82.1812 211.161 81.7725 210.09 81.7725H144.252C144.073 81.7725 143.897 81.8187 143.742 81.9066C143.586 81.9945 143.456 82.1212 143.364 82.2744C143.271 82.4275 143.22 82.6019 143.215 82.7806C143.21 82.9593 143.251 83.1363 143.335 83.2944Z" fill="#F2F2F2"/>
<path d="M148.511 97.4775H223.249V135.635H148.511V97.4775ZM222.682 135.067H149.078V98.0451H222.682L222.682 135.067Z" fill="#E6E6E6"/>
<path d="M144.622 88.377L145.999 93.4548H218.743L216.392 89.2286L144.622 88.377Z" fill="#122194"/>
<path d="M220.492 117.473H208.578V118.132H220.492V117.473Z" fill="white"/>
<path d="M220.492 119.781H208.578V120.44H220.492V119.781Z" fill="white"/>
<path d="M220.492 122.089H208.578V122.748H220.492V122.089Z" fill="white"/>
<path d="M215.877 110.126C218.244 110.126 220.163 108.207 220.163 105.84C220.163 103.472 218.244 101.553 215.877 101.553C213.51 101.553 211.592 103.472 211.592 105.84C211.592 108.207 213.51 110.126 215.877 110.126Z" fill="white"/>
<path d="M181.307 41.0699C186.345 40.949 191.224 42.8345 194.871 46.3118C198.518 49.7891 200.635 54.5732 200.756 59.6118C201.008 70.1042 193.54 92.1787 182.737 100.634C179.624 82.3258 164.104 70.2554 162.771 60.5242C161.346 50.126 170.818 41.3219 181.307 41.0699Z" fill="#122194"/>
<path d="M183.259 64.4945C186.68 64.4945 189.454 61.7197 189.454 58.2968C189.454 54.8739 186.68 52.0991 183.259 52.0991C179.837 52.0991 177.062 54.8739 177.062 58.2968C177.062 61.7197 179.837 64.4945 183.259 64.4945Z" fill="white"/>
<path d="M185.595 109.842C187.837 109.842 189.654 108.025 189.654 105.783C189.654 103.541 187.837 101.724 185.595 101.724C183.354 101.724 181.537 103.541 181.537 105.783C181.537 108.025 183.354 109.842 185.595 109.842Z" fill="#122194"/>
<path opacity="0.2" d="M178.544 53.4214C177.812 53.7775 177.158 54.2742 176.618 54.8832C176.078 55.4922 175.664 56.2016 175.398 56.9708C175.133 57.7401 175.021 58.5542 175.07 59.3666C175.119 60.179 175.327 60.9738 175.683 61.7057C176.039 62.4376 176.535 63.0921 177.144 63.6321C177.753 64.172 178.462 64.5867 179.231 64.8524C180 65.1182 180.814 65.2298 181.626 65.181C182.439 65.1321 183.233 64.9237 183.965 64.5677C182.506 64.7593 181.027 64.4254 179.792 63.6257C178.557 62.826 177.647 61.6128 177.224 60.2032C176.802 58.7935 176.895 57.2795 177.486 55.9321C178.078 54.5847 179.129 53.4918 180.453 52.8491C179.79 52.9357 179.145 53.1289 178.544 53.4214Z" fill="#231F20"/>
<path opacity="0.2" d="M162.744 60.5422C164.078 70.2734 179.598 82.3437 182.711 100.652C183.728 99.848 184.683 98.9703 185.571 98.0257C181.781 80.7404 167.251 69.1541 165.963 59.752C164.809 51.3369 170.794 43.9667 178.678 41.3276C169.284 42.8243 161.438 51.0133 162.744 60.5422Z" fill="#231F20"/>
<path d="M170.27 92.6073C167.961 92.4363 165.676 93.1732 163.902 94.6614C162.128 96.1495 161.004 98.2715 160.77 100.576C160.73 101.045 160.729 101.516 160.767 101.986L132.489 114.716L145.963 123.085L170.75 109.713C172.684 109.406 174.461 108.468 175.806 107.045C177.15 105.621 177.985 103.793 178.181 101.844C178.385 99.6032 177.691 97.3728 176.251 95.6439C174.811 93.915 172.743 92.8292 170.502 92.6252C170.425 92.6182 170.347 92.6122 170.27 92.6073Z" fill="#FFB6B6"/>
<path d="M142.491 108.53L147.068 122.723L119.31 135.542C117.333 136.464 115.154 136.865 112.979 136.708C110.803 136.55 108.705 135.838 106.882 134.641C104.667 133.172 102.991 131.022 102.104 128.517C101.217 126.011 101.169 123.285 101.966 120.749L116.839 74.7289C117.856 71.5051 120.07 68.7939 123.024 67.1527C125.979 65.5115 129.45 65.0653 132.724 65.9057C134.319 66.31 135.819 67.0247 137.138 68.0088C138.457 68.993 139.569 70.2274 140.411 71.6416C141.253 73.0557 141.809 74.622 142.046 76.2508C142.283 77.8797 142.197 79.5393 141.793 81.1349C141.761 81.261 141.727 81.3866 141.691 81.5116C141.565 81.9562 141.415 82.3936 141.242 82.8221L127.521 115.11L142.491 108.53Z" fill="#122194"/>
</g>
<defs>
<clipPath id="clip0_10_603">
<rect width="570" height="411" fill="white"/>
</clipPath>
</defs>
</svg>
