<svg width="513" height="357" viewBox="0 0 513 357" fill="none" xmlns="http://www.w3.org/2000/svg">
<g clip-path="url(#clip0_10_947)">
<path d="M102.212 357C158.662 357 204.424 353.524 204.424 349.235C204.424 344.947 158.662 341.471 102.212 341.471C45.7618 341.471 0 344.947 0 349.235C0 353.524 45.7618 357 102.212 357Z" fill="#E6E6E6"/>
<path d="M78.1289 79.2121C95.9168 71.6446 118.072 76.4393 139.709 79.767C139.91 75.7372 142.351 70.8326 139.794 68.0212C136.688 64.6055 136.974 61.0166 138.843 57.407C143.623 48.1768 136.775 38.3553 129.861 30.1889C128.303 28.3524 126.334 26.9094 124.113 25.9772C121.893 25.0449 119.483 24.6497 117.081 24.8237L104.274 25.7387C101.158 25.9613 98.1835 27.1307 95.7496 29.0902C93.3157 31.0498 91.5382 33.7061 90.6549 36.7037C87.5968 40.8638 85.96 45.0123 86.9905 49.1392C82.41 52.2702 81.6404 56.0496 83.6987 60.3102C85.4441 62.9928 85.4255 65.6041 83.6193 68.1431C81.2472 71.3802 79.4304 74.9897 78.2434 78.8235L78.1289 79.2121Z" fill="#2F2E41"/>
<path d="M500.844 308.621H138.304C135.08 308.621 131.988 307.34 129.708 305.059C127.428 302.779 126.147 299.686 126.147 296.462C257.568 281.185 386.519 281.185 513 296.462C513 299.686 511.719 302.779 509.439 305.059C507.16 307.34 504.068 308.621 500.844 308.621Z" fill="#2F2E41"/>
<path d="M513 297.177L126.147 296.462L170.982 221.005L171.197 220.648V54.3502C171.197 52.3317 171.594 50.333 172.366 48.4681C173.138 46.6032 174.27 44.9087 175.697 43.4814C177.124 42.0542 178.818 40.922 180.683 40.1496C182.547 39.3773 184.546 38.9798 186.564 38.98H450.438C452.457 38.9798 454.455 39.3773 456.319 40.1496C458.184 40.922 459.878 42.0542 461.305 43.4814C462.732 44.9087 463.864 46.6032 464.636 48.4681C465.408 50.333 465.805 52.3317 465.805 54.3502V221.792L513 297.177Z" fill="#3F3D56"/>
<path d="M186.213 49.7085C184.886 49.71 183.614 50.2379 182.676 51.1765C181.737 52.1151 181.209 53.3877 181.208 54.7151V206.343C181.21 207.671 181.737 208.943 182.676 209.882C183.614 210.82 184.886 211.348 186.213 211.35H452.934C454.261 211.348 455.534 210.82 456.472 209.882C457.41 208.943 457.938 207.671 457.94 206.343V54.7151C457.938 53.3877 457.41 52.1152 456.472 51.1766C455.534 50.238 454.261 49.71 452.934 49.7085H186.213Z" fill="white"/>
<path d="M187.331 231.376C186.92 231.377 186.519 231.495 186.174 231.716C185.829 231.937 185.554 232.253 185.382 232.625L171.567 262.664C171.416 262.991 171.35 263.351 171.375 263.71C171.4 264.069 171.515 264.416 171.709 264.719C171.903 265.022 172.17 265.271 172.486 265.444C172.801 265.616 173.155 265.707 173.515 265.707H464.038C464.403 265.707 464.763 265.613 465.082 265.435C465.402 265.257 465.67 265 465.862 264.689C466.055 264.378 466.164 264.023 466.18 263.658C466.197 263.292 466.119 262.929 465.956 262.602L450.939 232.562C450.762 232.205 450.489 231.904 450.15 231.695C449.811 231.485 449.42 231.375 449.021 231.376H187.331Z" fill="#2F2E41"/>
<path d="M318.501 47.2051C320.278 47.2051 321.719 45.7641 321.719 43.9866C321.719 42.209 320.278 40.7681 318.501 40.7681C316.724 40.7681 315.283 42.209 315.283 43.9866C315.283 45.7641 316.724 47.2051 318.501 47.2051Z" fill="white"/>
<path d="M289.945 271.429C289.474 271.429 289.016 271.585 288.641 271.872C288.267 272.159 287.997 272.561 287.874 273.016L284.409 285.89C284.323 286.208 284.312 286.542 284.376 286.865C284.44 287.188 284.577 287.492 284.777 287.754C284.978 288.015 285.235 288.227 285.531 288.373C285.826 288.518 286.151 288.594 286.48 288.594H352.383C352.725 288.594 353.062 288.512 353.366 288.356C353.67 288.199 353.932 287.972 354.131 287.693C354.329 287.414 354.458 287.092 354.506 286.754C354.555 286.415 354.522 286.07 354.41 285.747L349.955 272.872C349.809 272.451 349.535 272.085 349.172 271.827C348.808 271.568 348.373 271.429 347.927 271.429H289.945Z" fill="#2F2E41"/>
<path d="M465.805 218.145V221.005H170.982L171.204 220.648V218.145H465.805Z" fill="#2F2E41"/>
<path d="M457.582 100.132C485.227 100.132 507.637 77.7166 507.637 50.0659C507.637 22.4153 485.227 0 457.582 0C429.938 0 407.527 22.4153 407.527 50.0659C407.527 77.7166 429.938 100.132 457.582 100.132Z" fill="#122194"/>
<path d="M478.319 71.8803H436.845C436.086 71.8795 435.359 71.5779 434.823 71.0415C434.287 70.5052 433.985 69.7779 433.984 69.0194V43.9864C433.985 43.2279 434.287 42.5007 434.823 41.9643C435.359 41.428 436.086 41.1263 436.845 41.1255H478.319C479.077 41.1263 479.804 41.428 480.34 41.9643C480.877 42.5007 481.178 43.2279 481.179 43.9864V69.0194C481.178 69.7779 480.877 70.5052 480.34 71.0415C479.804 71.5779 479.077 71.8795 478.319 71.8803ZM436.845 43.9864V69.0194H478.321L478.319 43.9864L436.845 43.9864Z" fill="white"/>
<path d="M470.453 43.9865H444.711V32.5428C444.711 24.2542 450.124 18.2383 457.582 18.2383C465.04 18.2383 470.453 24.2542 470.453 32.5428L470.453 43.9865ZM447.571 41.1256H467.593V32.5428C467.593 25.8051 463.477 21.0992 457.582 21.0992C451.688 21.0992 447.571 25.8051 447.571 32.5428L447.571 41.1256Z" fill="white"/>
<path d="M457.582 58.6486C459.162 58.6486 460.442 57.3677 460.442 55.7877C460.442 54.2076 459.162 52.9268 457.582 52.9268C456.002 52.9268 454.722 54.2076 454.722 55.7877C454.722 57.3677 456.002 58.6486 457.582 58.6486Z" fill="white"/>
<path d="M422.639 159.919H216.508C215.496 159.918 214.525 159.515 213.81 158.799C213.094 158.084 212.692 157.113 212.69 156.101V104.957C212.692 103.945 213.094 102.975 213.81 102.259C214.525 101.543 215.496 101.14 216.508 101.139H422.639C423.651 101.14 424.621 101.543 425.337 102.259C426.053 102.975 426.455 103.945 426.456 104.957V156.101C426.455 157.113 426.053 158.084 425.337 158.799C424.621 159.515 423.651 159.918 422.639 159.919ZM216.508 102.666C215.9 102.667 215.318 102.909 214.889 103.338C214.459 103.768 214.218 104.35 214.217 104.957V156.101C214.218 156.708 214.459 157.291 214.889 157.72C215.318 158.15 215.9 158.391 216.508 158.392H422.639C423.246 158.391 423.829 158.15 424.258 157.72C424.687 157.291 424.929 156.708 424.929 156.101V104.957C424.929 104.35 424.687 103.768 424.258 103.338C423.829 102.909 423.246 102.667 422.639 102.666L216.508 102.666Z" fill="#E6E6E6"/>
<path d="M248.537 144.119C257.124 144.119 264.086 137.156 264.086 128.567C264.086 119.977 257.124 113.014 248.537 113.014C239.949 113.014 232.987 119.977 232.987 128.567C232.987 137.156 239.949 144.119 248.537 144.119Z" fill="#E6E6E6"/>
<path d="M284.448 118.198C284.108 118.198 283.77 118.264 283.455 118.394C283.14 118.524 282.854 118.715 282.613 118.956C282.372 119.197 282.181 119.483 282.05 119.797C281.92 120.112 281.853 120.45 281.853 120.79C281.853 121.131 281.92 121.469 282.05 121.783C282.181 122.098 282.372 122.384 282.613 122.625C282.854 122.866 283.14 123.056 283.455 123.186C283.77 123.316 284.108 123.383 284.448 123.383H406.622C407.31 123.383 407.969 123.109 408.455 122.623C408.941 122.137 409.214 121.478 409.214 120.79C409.214 120.103 408.941 119.444 408.455 118.957C407.969 118.471 407.31 118.198 406.622 118.198H284.448Z" fill="#E6E6E6"/>
<path d="M284.449 133.751C283.762 133.751 283.102 134.024 282.616 134.51C282.13 134.996 281.857 135.656 281.857 136.343C281.857 137.031 282.13 137.69 282.616 138.176C283.102 138.662 283.762 138.935 284.449 138.935H337.021C337.708 138.935 338.367 138.662 338.853 138.176C339.339 137.69 339.612 137.031 339.612 136.343C339.612 135.656 339.339 134.996 338.853 134.51C338.367 134.024 337.708 133.751 337.021 133.751H284.449Z" fill="#E6E6E6"/>
<path d="M170.475 134.8L132.37 155.063L131.888 138.177C144.325 136.1 156.158 132.484 167.099 126.598L171.084 116.75C171.518 115.677 172.224 114.735 173.132 114.017C174.04 113.299 175.119 112.83 176.263 112.655C177.408 112.48 178.577 112.606 179.658 113.02C180.739 113.434 181.694 114.123 182.428 115.017C183.503 116.326 184.041 117.995 183.932 119.685C183.822 121.375 183.075 122.961 181.841 124.12L170.475 134.8Z" fill="#FFB8B8"/>
<path d="M77.3692 251.79C77.0912 250.77 77.0322 249.703 77.196 248.659C77.3598 247.615 77.7428 246.617 78.3197 245.731L86.6902 232.882C88.6701 229.843 91.708 227.648 95.2145 226.723C98.7211 225.798 102.446 226.208 105.667 227.875C102.149 233.864 102.64 239.118 106.882 243.685C100.296 246.9 94.2095 251.051 88.8102 256.008C87.8245 256.68 86.6925 257.107 85.5085 257.253C84.3245 257.399 83.1227 257.259 82.0034 256.847C80.884 256.434 79.8795 255.76 79.0734 254.88C78.2673 254.001 77.683 252.941 77.3692 251.79Z" fill="#2F2E41"/>
<path d="M172.21 234.989C170.944 237.101 169.156 238.851 167.018 240.073C164.88 241.294 162.465 241.945 160.003 241.964L104.394 242.385L101.982 228.394L126.582 221.158L105.841 205.237L128.511 178.702L169.687 217.088C172.094 219.332 173.657 222.334 174.117 225.592C174.576 228.85 173.903 232.168 172.21 234.989Z" fill="#2F2E41"/>
<path d="M95.7119 330.674H82.6886C70.9957 250.505 59.0933 170.113 94.2648 140.106L135.746 146.861L130.44 182.079L107.288 208.614L95.7119 330.674Z" fill="#2F2E41"/>
<path d="M107.16 348.834C106.14 349.112 105.074 349.171 104.03 349.008C102.986 348.844 101.988 348.461 101.103 347.884L86.9623 345.983C83.9237 344.003 81.7289 340.964 80.8035 337.457C79.8782 333.95 80.2884 330.224 81.9545 327.002C87.9428 330.52 93.1959 330.029 97.7608 325.786C100.986 332.3 106.301 331.902 111.376 337.391C112.048 338.376 112.475 339.509 112.621 340.693C112.767 341.877 112.628 343.079 112.215 344.199C111.803 345.318 111.129 346.323 110.249 347.129C109.37 347.936 108.311 348.52 107.16 348.834Z" fill="#2F2E41"/>
<path d="M126.582 86.5546L102.465 80.7652C106.47 72.5645 106.8 63.4396 104.877 53.7481L121.276 53.2656C121.79 65.3173 123.345 76.5765 126.582 86.5546Z" fill="#FFB8B8"/>
<path d="M133.211 161.387C115.654 173.353 103.249 161.797 93.7831 143.966C95.0985 133.056 92.9686 119.999 89.024 105.812C87.2696 99.5543 87.9246 92.8663 90.8595 87.0682C93.7945 81.2701 98.7961 76.7833 104.877 74.4937L125.618 83.1778C143.229 97.5361 146.695 113.089 140.088 129.493L133.211 161.387Z" fill="#122194"/>
<path d="M82.689 98.6158L63.3953 108.747L97.6416 129.01L102.407 140.767C102.725 141.551 102.88 142.393 102.862 143.239C102.844 144.086 102.655 144.92 102.304 145.691C101.954 146.461 101.45 147.153 100.824 147.722C100.198 148.292 99.4619 148.728 98.6616 149.004C97.7519 149.318 96.7819 149.417 95.8276 149.293C94.8733 149.169 93.9606 148.826 93.161 148.291C92.3614 147.755 91.6966 147.042 91.2186 146.207C90.7407 145.371 90.4625 144.436 90.406 143.476L89.9241 135.282L46.3975 120.915C44.931 120.431 43.5939 119.619 42.4873 118.542C41.3808 117.464 40.5339 116.149 40.0108 114.696C39.2483 112.577 39.2095 110.266 39.9005 108.123C40.5914 105.98 41.9731 104.127 43.8293 102.853L78.8303 78.8354L82.689 98.6158Z" fill="#FFB8B8"/>
<path d="M101.983 100.546C93.9363 97.0186 86.6193 100.85 77.3835 103.923L75.9365 78.3531C85.1072 73.4642 93.8508 72.146 101.983 75.9409L101.983 100.546Z" fill="#122194"/>
<path d="M111.608 65.9314C120.112 65.9314 127.006 59.036 127.006 50.5302C127.006 42.0243 120.112 35.1289 111.608 35.1289C103.104 35.1289 96.21 42.0243 96.21 50.5302C96.21 59.036 103.104 65.9314 111.608 65.9314Z" fill="#FFB8B8"/>
<path d="M130.029 48.5867C114.784 50.0802 103.168 47.5863 95.7432 40.4856V34.7671H128.736L130.029 48.5867Z" fill="#2F2E41"/>
</g>
<defs>
<clipPath id="clip0_10_947">
<rect width="513" height="357" fill="white"/>
</clipPath>
</defs>
</svg>
