<svg width="40" height="40" viewBox="0 0 40 40" fill="none" xmlns="http://www.w3.org/2000/svg">
<path d="M23.75 6.66699H16.25C10.9467 6.66699 8.29505 6.66699 6.64752 8.34067C5 10.0143 5 12.7081 5 18.0956V21.9051C5 27.2926 5 29.9863 6.64752 31.66C8.29505 33.3337 10.9467 33.3337 16.25 33.3337H23.75C29.0533 33.3337 31.705 33.3337 33.3525 31.66C35 29.9863 35 27.2926 35 21.9051V18.0956C35 12.7081 35 10.0143 33.3525 8.34067C31.705 6.66699 29.0533 6.66699 23.75 6.66699Z" stroke="#787878"/>
<path d="M11.667 13.333H16.667" stroke="#787878" stroke-linecap="round"/>
<path d="M25 24.667V22.0003C25 21.0575 25 20.5861 25.2929 20.2932C25.5858 20.0003 26.0572 20.0003 27 20.0003H33C33.9428 20.0003 34.4142 20.0003 34.7071 20.2932C35 20.5861 35 21.0575 35 22.0003V24.667C35 25.6098 35 26.0812 34.7071 26.3741C34.4142 26.667 33.9428 26.667 33 26.667H27C26.0572 26.667 25.5858 26.667 25.2929 26.3741C25 26.0812 25 25.6098 25 24.667Z" stroke="#787878"/>
</svg>
